<!-- Generated by IcoMoon.io -->
<svg version="1.1" xmlns="http://www.w3.org/2000/svg" width="32" height="32" viewBox="0 0 32 32">
<title>arrow_next_right_icon-3</title>
<path fill="#fff" d="M15.53 15.12l-9.87 9.88c-0.164 0.191-0.249 0.437-0.24 0.689s0.114 0.491 0.292 0.668c0.178 0.178 0.417 0.282 0.668 0.292s0.498-0.076 0.689-0.24l9.060-9.060 8.8 8.8c0.187 0.186 0.441 0.291 0.705 0.291s0.518-0.105 0.705-0.291v0c0.094-0.093 0.168-0.204 0.219-0.326s0.077-0.252 0.077-0.385-0.026-0.263-0.077-0.385c-0.051-0.122-0.125-0.233-0.219-0.326l-9.61-9.61c-0.159-0.159-0.375-0.248-0.6-0.248s-0.441 0.089-0.6 0.248v0z"></path>
<path fill="#fff" d="M15.53 5.54l-9.87 9.88c-0.164 0.191-0.249 0.437-0.24 0.689s0.114 0.49 0.292 0.669c0.178 0.178 0.417 0.282 0.668 0.292s0.498-0.076 0.689-0.24l9.060-9.060 8.8 8.8c0.187 0.186 0.441 0.291 0.705 0.291s0.518-0.105 0.705-0.291c0.186-0.187 0.291-0.441 0.291-0.705s-0.105-0.518-0.291-0.705l-9.61-9.62c-0.159-0.159-0.375-0.248-0.6-0.248s-0.441 0.089-0.6 0.248v0z"></path>
</svg>
